<svg width="36" height="30" viewBox="0 0 36 30" fill="none" xmlns="http://www.w3.org/2000/svg">
<rect x="5.87195" y="8.65845" width="15.75" height="14.5" stroke="black" stroke-linecap="round" stroke-linejoin="round"/>
<path d="M9.24695 8.65841C9.24695 5.98903 11.2617 3.82507 13.7469 3.82507C16.2322 3.82507 18.2469 5.98903 18.2469 8.65841" stroke="black" stroke-linecap="round" stroke-linejoin="round"/>
<rect x="15.2469" y="3.20007" width="20" height="20" rx="10" fill="#5A5AC9"/>
<path d="M26.3965 12.968C26.7405 13.024 27.0365 13.152 27.2845 13.352C27.5325 13.544 27.7245 13.792 27.8605 14.096C27.9965 14.392 28.0645 14.728 28.0645 15.104C28.0645 15.592 27.9445 16.02 27.7045 16.388C27.4725 16.764 27.1405 17.052 26.7085 17.252C26.2765 17.46 25.7725 17.564 25.1965 17.564C24.5885 17.564 24.0525 17.448 23.5885 17.216C23.1325 16.992 22.7765 16.672 22.5205 16.256L23.2285 15.548C23.4125 15.868 23.6605 16.124 23.9725 16.316C24.2925 16.508 24.7005 16.604 25.1965 16.604C25.7485 16.604 26.1805 16.476 26.4925 16.22C26.8125 15.972 26.9725 15.6 26.9725 15.104C26.9725 14.6 26.8005 14.2 26.4565 13.904C26.1205 13.6 25.6285 13.448 24.9805 13.448H24.6685V12.56H25.0045C25.5805 12.56 26.0205 12.42 26.3245 12.14C26.6365 11.86 26.7925 11.512 26.7925 11.096C26.7925 10.808 26.7245 10.572 26.5885 10.388C26.4525 10.204 26.2685 10.068 26.0365 9.98005C25.8045 9.88405 25.5365 9.83605 25.2325 9.83605C24.7925 9.83605 24.4045 9.93205 24.0685 10.124C23.7405 10.308 23.4845 10.568 23.3005 10.904L22.6525 10.232C22.7965 9.96005 23.0005 9.72405 23.2645 9.52405C23.5365 9.32405 23.8485 9.16805 24.2005 9.05605C24.5605 8.94405 24.9405 8.88805 25.3405 8.88805C25.8445 8.88805 26.2885 8.97605 26.6725 9.15205C27.0645 9.32805 27.3685 9.57605 27.5845 9.89605C27.8005 10.216 27.9085 10.592 27.9085 11.024C27.9085 11.336 27.8485 11.632 27.7285 11.912C27.6085 12.184 27.4325 12.416 27.2005 12.608C26.9765 12.792 26.7085 12.912 26.3965 12.968Z" fill="white"/>
</svg>
