<svg width="40" height="31" viewBox="0 0 40 31" fill="none" xmlns="http://www.w3.org/2000/svg">
<path d="M21.2469 20.85H18.0177C16.0633 20.85 14.2315 19.5122 13.108 17.2646L11.0442 13.1354C9.92079 10.8878 8.08891 9.55005 6.13457 9.55005L3.24695 9.55005" stroke="black" stroke-linecap="round"/>
<path d="M21.2469 9.55005L18.0177 9.55005C16.0633 9.55005 14.2315 11.0299 13.108 13.5162L11.0442 18.0839C9.92079 20.5702 8.08891 22.05 6.13457 22.05L3.24695 22.05" stroke="black" stroke-linecap="round"/>
<path d="M19.2469 5.80005L22.2469 9.55005L19.2469 13.3" stroke="black" stroke-linecap="round"/>
<path d="M19.2469 17.05L22.2469 20.8L19.2469 24.55" stroke="black" stroke-linecap="round"/>
<rect x="19.2469" y="3.30005" width="20" height="20" rx="10" fill="#5A5AC9"/>
<path d="M31.7578 14.94V15.9L27.4498 15.9V14.94L29.1538 14.94L29.1538 10.26C29.0818 10.356 28.9698 10.46 28.8178 10.572C28.6658 10.676 28.4938 10.776 28.3018 10.872C28.1098 10.968 27.9178 11.048 27.7258 11.112C27.5338 11.168 27.3578 11.196 27.1978 11.196V10.188C27.3738 10.188 27.5658 10.14 27.7738 10.044C27.9898 9.94002 28.1978 9.82002 28.3978 9.68402C28.5978 9.54802 28.7658 9.42002 28.9018 9.30002C29.0458 9.18002 29.1298 9.09602 29.1538 9.04802H30.2338L30.2338 14.94H31.7578Z" fill="white"/>
</svg>
