<svg width="36" height="27" viewBox="0 0 36 27" fill="none" xmlns="http://www.w3.org/2000/svg">
<path d="M12.747 23.4501L11.2366 22.0473C5.87199 17.0847 2.33032 13.8117 2.33032 9.79476C2.33032 6.52174 4.85116 3.95007 8.05949 3.95007C9.87199 3.95007 11.6116 4.81084 12.747 6.17105C13.8824 4.81084 15.622 3.95007 17.4345 3.95007C20.6428 3.95007 23.1637 6.52174 23.1637 9.79476C23.1637 13.8117 19.622 17.0847 14.2574 22.058L12.747 23.4501Z" stroke="black"/>
<rect x="15.2469" y="0.700073" width="20" height="20" rx="10" fill="#5A5AC9"/>
<path d="M26.3965 10.468C26.7405 10.524 27.0365 10.652 27.2845 10.852C27.5325 11.044 27.7245 11.292 27.8605 11.596C27.9965 11.892 28.0645 12.228 28.0645 12.604C28.0645 13.092 27.9445 13.52 27.7045 13.888C27.4725 14.264 27.1405 14.552 26.7085 14.752C26.2765 14.96 25.7725 15.064 25.1965 15.064C24.5885 15.064 24.0525 14.948 23.5885 14.716C23.1325 14.492 22.7765 14.172 22.5205 13.756L23.2285 13.048C23.4125 13.368 23.6605 13.624 23.9725 13.816C24.2925 14.008 24.7005 14.104 25.1965 14.104C25.7485 14.104 26.1805 13.976 26.4925 13.72C26.8125 13.472 26.9725 13.1 26.9725 12.604C26.9725 12.1 26.8005 11.7 26.4565 11.404C26.1205 11.1 25.6285 10.948 24.9805 10.948H24.6685V10.06H25.0045C25.5805 10.06 26.0205 9.92005 26.3245 9.64005C26.6365 9.36005 26.7925 9.01205 26.7925 8.59605C26.7925 8.30805 26.7245 8.07205 26.5885 7.88805C26.4525 7.70405 26.2685 7.56805 26.0365 7.48005C25.8045 7.38405 25.5365 7.33605 25.2325 7.33605C24.7925 7.33605 24.4045 7.43205 24.0685 7.62405C23.7405 7.80805 23.4845 8.06805 23.3005 8.40405L22.6525 7.73205C22.7965 7.46005 23.0005 7.22405 23.2645 7.02405C23.5365 6.82405 23.8485 6.66805 24.2005 6.55605C24.5605 6.44405 24.9405 6.38805 25.3405 6.38805C25.8445 6.38805 26.2885 6.47605 26.6725 6.65205C27.0645 6.82805 27.3685 7.07605 27.5845 7.39605C27.8005 7.71605 27.9085 8.09205 27.9085 8.52405C27.9085 8.83605 27.8485 9.13205 27.7285 9.41205C27.6085 9.68405 27.4325 9.91605 27.2005 10.108C26.9765 10.292 26.7085 10.412 26.3965 10.468Z" fill="white"/>
</svg>
